<svg xmlns="http://www.w3.org/2000/svg"  viewBox="0 0 50 50" width="150px" height="150px"><path d="M 3 6 C 1.347656 6 0 7.347656 0 9 L 0 41 C 0 42.652344 1.347656 44 3 44 L 45 44 C 46.652344 44 48 42.652344 48 41 L 48 22.9375 C 40.527344 22.441406 34.558594 16.472656 34.0625 9 L 18.40625 9 L 16.28125 6.875 C 15.714844 6.308594 14.988281 6 14.1875 6 Z M 36.90625 6.96875 C 36.863281 6.976563 36.820313 6.988281 36.78125 7 C 36.316406 7.105469 35.988281 7.523438 36 8 C 36 15.167969 41.832031 21 49 21 C 49.410156 21.007813 49.789063 20.765625 49.945313 20.386719 C 50.105469 20.007813 50.015625 19.566406 49.71875 19.28125 C 49.710938 19.273438 49.695313 19.289063 49.6875 19.28125 C 49.675781 19.269531 49.667969 19.261719 49.65625 19.25 C 49.644531 19.242188 49.636719 19.226563 49.625 19.21875 C 49.449219 19.078125 49.226563 19 49 19 C 48.238281 19 47.5 18.925781 46.78125 18.78125 C 46.421875 18.707031 46.0625 18.605469 45.71875 18.5 C 45.375 18.394531 45.046875 18.265625 44.71875 18.125 C 44.0625 17.847656 43.429688 17.519531 42.84375 17.125 C 41.671875 16.335938 40.664063 15.328125 39.875 14.15625 C 39.480469 13.570313 39.152344 12.9375 38.875 12.28125 C 38.320313 10.964844 38 9.523438 38 8 C 38.007813 7.734375 37.90625 7.472656 37.71875 7.28125 C 37.691406 7.253906 37.652344 7.242188 37.625 7.21875 C 37.425781 7.042969 37.167969 6.953125 36.90625 6.96875 Z M 40.90625 6.96875 C 40.863281 6.976563 40.820313 6.988281 40.78125 7 C 40.316406 7.105469 39.988281 7.523438 40 8 C 40 12.957031 44.042969 17 49 17 C 49.359375 17.003906 49.695313 16.816406 49.878906 16.503906 C 50.058594 16.191406 50.058594 15.808594 49.878906 15.496094 C 49.695313 15.183594 49.359375 14.996094 49 15 C 45.121094 15 42 11.878906 42 8 C 42.011719 7.710938 41.894531 7.433594 41.6875 7.238281 C 41.476563 7.039063 41.191406 6.941406 40.90625 6.96875 Z M 44.90625 6.96875 C 44.863281 6.976563 44.820313 6.988281 44.78125 7 C 44.316406 7.105469 43.988281 7.523438 44 8 C 44 10.75 46.25 13 49 13 C 49.359375 13.003906 49.695313 12.816406 49.878906 12.503906 C 50.058594 12.191406 50.058594 11.808594 49.878906 11.496094 C 49.695313 11.183594 49.359375 10.996094 49 11 C 47.332031 11 46 9.667969 46 8 C 46.011719 7.710938 45.894531 7.433594 45.6875 7.238281 C 45.476563 7.039063 45.191406 6.941406 44.90625 6.96875 Z M 49 7 C 48.449219 7 48 7.449219 48 8 C 48 8.550781 48.449219 9 49 9 C 49.550781 9 50 8.550781 50 8 C 50 7.449219 49.550781 7 49 7 Z"/></svg>