<svg xmlns="http://www.w3.org/2000/svg"  viewBox="0 0 50 50" width="150px" height="150px"><path d="M 4 4 L 4 5 L 4 46 L 46 46 L 46 4 L 4 4 z M 6 6 L 44 6 L 44 44 L 6 44 L 6 6 z M 8 8 L 8 42 L 42 42 L 42 8 L 8 8 z M 27 13 C 32 13 33.64 14.07 35 15 L 34 20 L 32 20 C 32 17.24 30.65 15 27.75 15 C 23 15 19 20 19 27 C 19 32 21 35 24 35 C 25.48 34.982 26.762187 33.972156 27.117188 32.535156 C 27.333188 31.662156 27.580719 30.125 27.886719 28 L 25 28 L 25 26 L 28.167969 26 L 33.197266 26 L 35 26 L 35 28 L 32.896484 28 C 32.524484 30.357 32.225562 31.840969 31.976562 32.792969 C 31.598562 34.242969 30.611328 35.491938 29.236328 36.085938 C 27.925328 36.651938 26.205 37 24 37 C 18 37 14 33.08 14 27 C 14 19.27 18.72 13 27 13 z"/></svg>